# xmcd CD database file
#
# Track frame offsets:
#	150
#	15082
#	31217
#	56908
#	81744
#	99530
#	122293
#	161641
#	191414
#	211716
#	236811
#	253549
#	272183
#	285880
#	302736
#
# Disc length: 4282 seconds
#
# Revision: 2
# Processed by: cddbd v1.5.1PL0 Copyright (c) Steve Scherf et al.
# Submitted via: CDex 1.51
#
DISCID=c210b80f
DTITLE=Louis Armstrong - Big Daddy Blues
DYEAR=1900
DGENRE=Jazz
TTITLE0=Unless
TTITLE1=The Hucklebuck
TTITLE2=Twelfth Street Rag
TTITLE3=Indiana
TTITLE4=Honeysuckle Rose
TTITLE5=Panama
TTITLE6=Bugle Call Rag/Ole Miss
TTITLE7=My Monday Date
TTITLE8=Baby, Won't You Please Come Home
TTITLE9=Russian Lullaby
TTITLE10=My Bucket's Got A Hole In It
TTITLE11=You Can Depend On Me
TTITLE12=That's a Plenty
TTITLE13=Big Daddy Blues
TTITLE14=Fine And Dandy
EXTD=
EXTT0=
EXTT1=
EXTT2=
EXTT3=
EXTT4=
EXTT5=
EXTT6=
EXTT7=
EXTT8=
EXTT9=
EXTT10=
EXTT11=
EXTT12=
EXTT13=
EXTT14=
PLAYORDER=
